<svg version="1.1" id="Layer_1" xmlns="http://www.w3.org/2000/svg" xmlns:xlink="http://www.w3.org/1999/xlink" x="0px" y="0px"
	 viewBox="0 0 300 78" style="enable-background:new 0 0 300 78;" xml:space="preserve">
<style type="text/css">
	.st0{fill:#AEAEAE;}
	.st1{fill:url(#SVGID_1_);}
	.st2{fill:#FFFFFF;}
	.st3{fill:#454545;}
	.st4{fill:#898989;}
	.st5{fill:#AFAFAF;}
	.st6{fill:#898989;stroke:#231F20;stroke-width:4.065596e-02;stroke-miterlimit:10;}
	.st7{font-family:'MyriadPro-Regular';}
	.st8{font-size:5.8545px;}
</style>
<g>
	<g id="Artwork_7_1_">
		<g>
			<g>
				<ellipse class="st0" cx="30.9" cy="72.9" rx="23.4" ry="3.1"/>
				
					<linearGradient id="SVGID_1_" gradientUnits="userSpaceOnUse" x1="-3.7038" y1="-31.0024" x2="49.4884" y2="-31.0024" gradientTransform="matrix(0.9958 -9.116088e-02 9.116088e-02 0.9958 11.6862 70.2751)">
					<stop  offset="3.525641e-03" style="stop-color:#EE2D5D"/>
					<stop  offset="1" style="stop-color:#F15B23"/>
				</linearGradient>
				<path class="st1" d="M8.5,43l0.6,0.9l3.6,5.2l15.6,22.5c1,1.4,2.8,1.7,4.2,0.8c0.3-0.2,0.5-0.5,0.8-0.8L52.6,44l0.6-0.9
					c8-12.4,4.4-28.8-8-36.8C41.4,3.8,37,2.3,32.5,2c-0.5,0-1.1-0.1-1.6-0.1c-2.1,0-4.2,0.3-6.2,0.7C13,5.5,4.2,16,4.3,28.6
					C4.3,33.7,5.7,38.7,8.5,43L8.5,43z"/>
				<g>
					<path class="st2" d="M33.5,13.2c-9-1.3-17.4,4.9-18.7,13.9s4.9,17.4,13.9,18.7c9,1.3,17.4-4.9,18.7-13.9
						C48.7,22.9,42.5,14.5,33.5,13.2z M46.6,30.4c-2.4,0.9-4.9,1.4-7.4,1.7c0.1-0.5,0.2-0.9,0.3-1.4c0.7-5.5-0.5-11.1-3.3-15.9
						C42.7,17.1,47,23.4,46.6,30.4z M34.7,14.4c3.1,4.8,4.5,10.5,3.8,16.1c-0.1,0.6-0.2,1.1-0.4,1.7c-2.4,0.2-4.9,0.2-7.3-0.1
						c-2.4-0.4-4.8-1.1-7.1-2c0-0.6,0.1-1.1,0.1-1.7c0.9-5.6,3.9-10.7,8.2-14.4c0.4,0,0.9,0.1,1.3,0.1
						C33.8,14.2,34.2,14.3,34.7,14.4z M30.6,14c-4.1,3.8-6.8,8.8-7.7,14.3c-0.1,0.5-0.1,1-0.1,1.4c-2.4-1-4.6-2.2-6.6-3.8
						C17.7,19.1,23.6,14.3,30.6,14L30.6,14z M15.8,27.2c0-0.1,0-0.1,0-0.2c2.1,1.5,4.4,2.8,6.8,3.7c-0.1,4.7,1.1,9.3,3.5,13.4
						C19.1,41.7,14.7,34.6,15.8,27.2z M27.6,44.5c-2.6-4-4-8.6-3.9-13.4c2.2,0.9,4.6,1.6,7,2c2.4,0.3,4.8,0.3,7.2,0.1
						c-1.3,4.6-4,8.6-7.6,11.7c-0.4,0-0.9-0.1-1.3-0.1C28.4,44.7,28,44.6,27.6,44.5z M31.7,44.9c3.5-3.2,6-7.3,7.2-11.8
						c2.6-0.2,5.1-0.8,7.6-1.6c0,0.1,0,0.1,0,0.2C45.3,39.1,39.1,44.7,31.7,44.9L31.7,44.9z"/>
					<path class="st2" d="M31.1,46.7c-0.8,0-1.7-0.1-2.5-0.2C19.2,45.2,12.7,36.4,14,27c0.7-4.6,3.1-8.6,6.8-11.3
						c3.7-2.8,8.2-3.9,12.8-3.2h0C43,13.8,49.6,22.6,48.2,32C46.9,40.6,39.6,46.7,31.1,46.7z M28.1,43.8c0.3,0.1,0.6,0.1,0.9,0.2
						s0.6,0.1,0.9,0.1c3.1-2.7,5.4-6.1,6.8-10c-2.1,0.1-4.1,0-6.2-0.2c-2.1-0.4-4.1-0.9-6.1-1.6C24.6,36.4,25.8,40.4,28.1,43.8z
						 M39.5,33.9c-1.1,3.7-3,7.2-5.7,10c5.7-1.1,10.4-5.5,11.6-11.3C43.5,33.2,41.5,33.6,39.5,33.9z M16.5,28.4
						c-0.4,5.9,2.7,11.4,7.9,14.1c-1.7-3.5-2.6-7.3-2.5-11.3C20,30.5,18.2,29.5,16.5,28.4z M24.5,29.6c2.1,0.8,4.2,1.4,6.4,1.8
						c2.1,0.2,4.4,0.3,6.6,0.1c0.1-0.3,0.2-0.7,0.2-1.1c0.7-5.3-0.6-10.8-3.5-15.3c-0.3-0.1-0.6-0.1-0.9-0.2c-0.3,0-0.6-0.1-0.9-0.1
						c-4.1,3.5-6.8,8.4-7.7,13.7C24.5,28.9,24.5,29.2,24.5,29.6z M37.9,16.4c2.1,4.4,3,9.5,2.3,14.4c0,0.1,0,0.3-0.1,0.4
						c1.9-0.3,3.8-0.7,5.7-1.4C45.9,24.2,42.8,19,37.9,16.4z M17,25.6c1.6,1.1,3.3,2.1,5,2.9c0-0.1,0-0.2,0-0.4
						c0.8-4.9,3.1-9.5,6.4-13.1C23,16.1,18.5,20.1,17,25.6z"/>
				</g>
			</g>
			<g>
				<g>
					<path class="st3" d="M91.6,22c0,0.1,0,0.2-0.1,0.4l-4.7,18.6c-0.1,0.2-0.2,0.3-0.5,0.4s-0.6,0.2-1.1,0.2h-2.1
						c-0.4,0-0.8-0.1-1.1-0.2c-0.3-0.1-0.5-0.3-0.5-0.4l-2.4-10l-0.5-2l-0.5,2l-2.5,10c-0.1,0.2-0.2,0.3-0.5,0.4
						c-0.3,0.1-0.6,0.2-1.1,0.2H72c-1,0-1.5-0.2-1.6-0.6l-4.6-18.6c0-0.1-0.1-0.3-0.1-0.4c0-0.5,0.6-0.8,1.8-0.8h0.8
						c1.2,0,1.8,0.3,1.9,0.9l2.2,9.3l0.6,2.6c0.1,0.3,0.2,0.8,0.3,1.5c0.1-0.9,0.3-1.8,0.6-2.6c0.2-0.9,0.4-1.4,0.4-1.5l2.4-9.6
						c0.1-0.2,0.2-0.4,0.5-0.5c0.3-0.1,0.6-0.1,1.1-0.1h1.1c0.5,0,0.9,0,1.1,0.1c0.3,0.1,0.4,0.2,0.5,0.5l2.3,9.6
						c0.3,1.4,0.7,2.9,1,4.4l0.6-2.5l0.4-1.8l2.3-9.3c0.1-0.6,0.8-0.9,1.9-0.9h0.3C91,21.3,91.6,21.5,91.6,22z"/>
					<path class="st3" d="M106.5,21.7c0.1,0.2,0.2,0.6,0.2,1.1v0.9c0,0.5-0.1,0.9-0.2,1.1c-0.1,0.2-0.4,0.3-0.7,0.3h-7.3v4.2h6.5
						c0.3,0,0.5,0.1,0.7,0.3s0.2,0.6,0.2,1.1v0.9c0,0.5-0.1,0.9-0.2,1.1c-0.1,0.2-0.4,0.3-0.7,0.3h-6.5v4.7h7.3
						c0.3,0,0.5,0.1,0.7,0.3c0.1,0.2,0.2,0.6,0.2,1.1v0.9c0,0.5-0.1,0.9-0.2,1.1c-0.1,0.2-0.4,0.3-0.7,0.3H95.2
						c-0.4,0-0.7-0.1-0.9-0.3c-0.2-0.2-0.3-0.5-0.3-0.9v-18c0-0.4,0.1-0.7,0.3-0.9c0.2-0.2,0.5-0.3,0.9-0.3h10.6
						C106.1,21.3,106.3,21.5,106.5,21.7z"/>
					<path class="st3" d="M121.4,22.7c1.1,0.9,1.7,2.2,1.7,3.8c0,1-0.3,1.8-0.9,2.6c-0.6,0.8-1.3,1.4-2.2,1.8l0,0.1
						c1.1,0.2,2.1,0.8,2.8,1.7c0.7,0.9,1.1,1.9,1.1,3c0,1.9-0.6,3.3-1.8,4.4c-1.2,1-3,1.5-5.4,1.5h-6.1c-0.4,0-0.7-0.1-0.9-0.3
						c-0.2-0.2-0.3-0.5-0.3-0.9v-18c0-0.4,0.1-0.7,0.3-0.9c0.2-0.2,0.5-0.3,0.9-0.3h5.7C118.5,21.3,120.3,21.8,121.4,22.7z
						 M113.8,25.1v4.3h2c0.8,0,1.5-0.2,2-0.6c0.5-0.4,0.7-0.9,0.7-1.6c0-1.4-0.9-2.1-2.6-2.1H113.8z M113.8,33.2v4.6h2.8
						c0.8,0,1.5-0.2,2-0.6c0.5-0.4,0.7-1,0.7-1.7s-0.3-1.3-0.8-1.7c-0.5-0.4-1.3-0.6-2.3-0.6H113.8z"/>
					<path class="st3" d="M135.6,21.4c0.8,0.2,1.4,0.5,1.9,0.8c0.5,0.3,0.7,0.6,0.7,1c0,0.3-0.1,0.6-0.3,1c-0.2,0.4-0.4,0.8-0.6,1.1
						c-0.3,0.3-0.5,0.4-0.7,0.4c-0.1,0-0.3-0.1-0.6-0.2c-0.3-0.1-0.7-0.3-1.1-0.4c-0.4-0.1-0.9-0.1-1.5-0.1c-1,0-1.7,0.2-2.1,0.5
						c-0.4,0.3-0.6,0.7-0.6,1.1c0,0.7,0.3,1.3,0.8,1.6c0.5,0.4,1.3,0.8,2.3,1.2c1.1,0.5,2,0.9,2.7,1.3c0.7,0.4,1.3,1,1.8,1.8
						c0.5,0.8,0.8,1.8,0.8,3c0,1.5-0.3,2.7-0.9,3.6c-0.6,0.9-1.4,1.6-2.4,2.1c-1,0.4-2,0.6-3.2,0.6c-1.4,0-2.6-0.1-3.6-0.4
						c-1-0.3-1.8-0.6-2.4-1c-0.6-0.4-0.8-0.8-0.8-1.1c0-0.3,0.1-0.6,0.3-1c0.2-0.4,0.5-0.8,0.8-1.1s0.5-0.5,0.7-0.5
						c0.1,0,0.4,0.1,0.8,0.3c0.6,0.3,1.1,0.5,1.7,0.7c0.5,0.2,1.1,0.3,1.8,0.3c0.8,0,1.4-0.1,1.9-0.4c0.5-0.3,0.8-0.8,0.8-1.6
						c0-0.6-0.2-1.1-0.7-1.5c-0.5-0.4-1.3-0.8-2.4-1.2l-1.3-0.6c-1.2-0.6-2.2-1.3-2.9-2.2c-0.7-0.9-1-2.1-1-3.7c0-1.3,0.3-2.4,1-3.3
						c0.6-0.9,1.5-1.5,2.5-1.9c1-0.4,2.2-0.6,3.4-0.6C133.9,21.1,134.8,21.2,135.6,21.4z"/>
					<path class="st3" d="M146.4,22.2v18.5c0,0.6-0.6,1-1.7,1h-1c-1.2,0-1.7-0.3-1.7-1V22.2c0-0.6,0.6-1,1.7-1h1
						C145.8,21.2,146.4,21.6,146.4,22.2z"/>
					<path class="st3" d="M163.7,21.7c0.1,0.2,0.2,0.6,0.2,1.1v0.9c0,0.5-0.1,0.9-0.2,1.1c-0.1,0.2-0.4,0.3-0.7,0.3h-4.6v15.6
						c0,0.6-0.6,0.9-1.7,0.9h-1c-1.2,0-1.7-0.3-1.7-0.9V25.1h-4.6c-0.3,0-0.5-0.1-0.7-0.3s-0.2-0.6-0.2-1.1v-0.9
						c0-0.5,0.1-0.9,0.2-1.1c0.1-0.2,0.4-0.3,0.7-0.3h13.7C163.4,21.3,163.6,21.5,163.7,21.7z"/>
					<path class="st3" d="M178,21.7c0.1,0.2,0.2,0.6,0.2,1.1v0.9c0,0.5-0.1,0.9-0.2,1.1c-0.1,0.2-0.4,0.3-0.7,0.3h-7.3v4.2h6.5
						c0.3,0,0.5,0.1,0.7,0.3c0.1,0.2,0.2,0.6,0.2,1.1v0.9c0,0.5-0.1,0.9-0.2,1.1c-0.1,0.2-0.4,0.3-0.7,0.3h-6.5v4.7h7.3
						c0.3,0,0.5,0.1,0.7,0.3c0.1,0.2,0.2,0.6,0.2,1.1v0.9c0,0.5-0.1,0.9-0.2,1.1c-0.1,0.2-0.4,0.3-0.7,0.3h-10.6
						c-0.4,0-0.7-0.1-0.9-0.3c-0.2-0.2-0.3-0.5-0.3-0.9v-18c0-0.4,0.1-0.7,0.3-0.9c0.2-0.2,0.5-0.3,0.9-0.3h10.6
						C177.7,21.3,177.9,21.5,178,21.7z"/>
					<path class="st4" d="M203,21.7c0.1,0.2,0.2,0.6,0.2,1.1v0.9c0,0.5-0.1,0.9-0.2,1.1c-0.1,0.2-0.4,0.3-0.7,0.3h-4.6v15.6
						c0,0.6-0.6,0.9-1.7,0.9h-1c-1.2,0-1.7-0.3-1.7-0.9V25.1h-4.6c-0.3,0-0.5-0.1-0.7-0.3c-0.1-0.2-0.2-0.6-0.2-1.1v-0.9
						c0-0.5,0.1-0.9,0.2-1.1c0.1-0.2,0.4-0.3,0.7-0.3h13.7C202.6,21.3,202.9,21.5,203,21.7z"/>
					<path class="st4" d="M220,26.8c0,1.1-0.3,2-0.9,2.8c-0.6,0.8-1.4,1.4-2.5,1.8v0.1c0.4,0.1,0.7,0.5,1.1,1c0.4,0.5,0.7,1.1,1,1.7
						l2.5,6.4c0.1,0.3,0.1,0.4,0.1,0.6c0,0.2-0.1,0.3-0.4,0.4c-0.3,0.1-0.7,0.2-1.3,0.2h-1.2c-1,0-1.5-0.2-1.7-0.6l-2.3-5.6
						c-0.3-0.6-0.7-1.1-1.1-1.3c-0.4-0.3-1-0.4-1.9-0.4h-1.1v7.1c0,0.6-0.6,0.9-1.7,0.9h-1c-1.2,0-1.7-0.3-1.7-0.9V22.5
						c0-0.4,0.1-0.7,0.3-0.9c0.2-0.2,0.5-0.3,0.9-0.3h5.6C217.6,21.3,220,23.2,220,26.8z M210.5,25.1v4.7h2.8c0.6,0,1.1-0.2,1.6-0.7
						c0.4-0.5,0.7-1.1,0.7-1.8c0-0.7-0.2-1.2-0.7-1.6c-0.4-0.4-1-0.6-1.8-0.6H210.5z"/>
					<path class="st4" d="M233.5,21.9l6.4,18.6c0.1,0.2,0.1,0.4,0.1,0.5c0,0.4-0.5,0.6-1.4,0.6h-1.3c-0.9,0-1.5-0.2-1.6-0.6
						l-1.2-3.5h-6.8l-1.2,3.5c-0.1,0.4-0.6,0.6-1.3,0.6H224c-1.2,0-1.8-0.2-1.8-0.6c0-0.1,0-0.3,0.1-0.5l6.4-18.6
						c0.2-0.4,0.7-0.6,1.7-0.6h1.5C232.8,21.3,233.4,21.5,233.5,21.9z M231.1,26.7c0,0.1-0.1,0.4-0.1,0.8c-0.1,0.4-0.2,0.8-0.3,1.1
						l-1.7,5.2h4.3l-1.7-5.2c-0.1-0.4-0.3-1-0.4-1.9H231.1z"/>
					<path class="st4" d="M255.6,21.9c0,0.1,0,0.3-0.1,0.5l-6.3,18.6c-0.1,0.4-0.7,0.6-1.6,0.6h-1.5c-0.9,0-1.5-0.2-1.6-0.6
						l-6.3-18.6c-0.1-0.3-0.1-0.4-0.1-0.5c0-0.4,0.6-0.6,1.8-0.6h1c1,0,1.5,0.3,1.7,0.8l3.9,12.5l0.3,1h0.1l0.3-1l4-12.5
						c0.2-0.6,0.8-0.8,1.7-0.8h0.9C255,21.3,255.6,21.5,255.6,21.9z"/>
					<path class="st4" d="M270.8,21.7c0.1,0.2,0.2,0.6,0.2,1.1v0.9c0,0.5-0.1,0.9-0.2,1.1c-0.1,0.2-0.4,0.3-0.7,0.3h-7.3v4.2h6.5
						c0.3,0,0.5,0.1,0.7,0.3s0.2,0.6,0.2,1.1v0.9c0,0.5-0.1,0.9-0.2,1.1c-0.1,0.2-0.4,0.3-0.7,0.3h-6.5v4.7h7.3
						c0.3,0,0.5,0.1,0.7,0.3c0.1,0.2,0.2,0.6,0.2,1.1v0.9c0,0.5-0.1,0.9-0.2,1.1c-0.1,0.2-0.4,0.3-0.7,0.3h-10.6
						c-0.4,0-0.7-0.1-0.9-0.3c-0.2-0.2-0.3-0.5-0.3-0.9v-18c0-0.4,0.1-0.7,0.3-0.9c0.2-0.2,0.5-0.3,0.9-0.3h10.6
						C270.5,21.3,270.7,21.5,270.8,21.7z"/>
					<path class="st4" d="M279.3,22.2v15.6h6.5c0.3,0,0.5,0.1,0.7,0.3c0.1,0.2,0.2,0.6,0.2,1.1v0.9c0,0.5-0.1,0.9-0.2,1.1
						c-0.1,0.2-0.4,0.3-0.7,0.3H276c-0.4,0-0.7-0.1-0.9-0.3c-0.2-0.2-0.3-0.5-0.3-0.9V22.2c0-0.6,0.6-0.9,1.7-0.9h1
						C278.7,21.3,279.3,21.6,279.3,22.2z"/>
				</g>
			</g>
		</g>
		<g>
			<path class="st5" d="M93.5,51.5c2.5,0,3.8,1.3,3.8,1.3l-0.7,1.1c0,0-1.2-1-2.9-1c-2.4,0-3.9,1.8-3.9,4c0,2.4,1.7,4.1,3.8,4.1
				c1.8,0,2.9-1.3,2.9-1.3v-1.5h-1.7v-1.3h3v5.2h-1.3v-0.6c0-0.2,0-0.4,0-0.4h0c0,0-1.1,1.3-3.2,1.3c-2.8,0-5.1-2.2-5.1-5.4
				C88.2,53.9,90.5,51.5,93.5,51.5z"/>
			<path class="st5" d="M100.1,51.7h1.5v9.1h4.7v1.3h-6.1V51.7z"/>
			<path class="st5" d="M112.3,51.5c3,0,5.3,2.3,5.3,5.3c0,3.1-2.3,5.5-5.3,5.5c-3,0-5.3-2.4-5.3-5.5
				C106.9,53.8,109.3,51.5,112.3,51.5z M112.3,60.9c2.1,0,3.8-1.8,3.8-4.1c0-2.3-1.7-4-3.8-4c-2.1,0-3.8,1.7-3.8,4
				C108.4,59.2,110.1,60.9,112.3,60.9z"/>
			<path class="st5" d="M119.7,51.7h3.6c1.8,0,3,1,3,2.7c0,1-0.5,1.8-1.3,2.2v0c1.1,0.3,1.7,1.4,1.7,2.5c0,2-1.5,3-3.3,3h-3.7V51.7z
				 M123.3,56.1c0.9,0,1.5-0.7,1.5-1.6s-0.6-1.5-1.6-1.5h-2.1v3.1H123.3z M123.5,60.8c1.1,0,1.8-0.7,1.8-1.8c0-1.1-0.7-1.8-1.8-1.8
				h-2.3v3.5H123.5z"/>
			<path class="st5" d="M134.2,59.1h-3.9l-1,3h-1.5l3.7-10.4h1.5l3.7,10.4h-1.5L134.2,59.1z M132.2,53.1c0,0-0.2,0.9-0.4,1.5
				l-1.2,3.3h3.2l-1.1-3.3C132.5,54.1,132.2,53.1,132.2,53.1L132.2,53.1z"/>
			<path class="st5" d="M138.3,51.7h1.5v9.1h4.7v1.3h-6.1V51.7z"/>
			<path class="st5" d="M150.3,51.7h1.5l2.4,5.6c0.2,0.6,0.5,1.4,0.5,1.4h0c0,0,0.3-0.8,0.5-1.4l2.4-5.6h1.5l0.8,10.4h-1.4l-0.5-6.6
				c0-0.6,0-1.5,0-1.5h0c0,0-0.3,1-0.6,1.5l-2.1,4.7h-1.3l-2.1-4.7c-0.2-0.6-0.6-1.6-0.6-1.6h0c0,0,0,0.9,0,1.6l-0.5,6.6h-1.5
				L150.3,51.7z"/>
			<path class="st5" d="M167.7,59.1h-3.9l-1,3h-1.5l3.7-10.4h1.5l3.7,10.4h-1.5L167.7,59.1z M165.7,53.1c0,0-0.2,0.9-0.4,1.5
				l-1.2,3.3h3.2l-1.1-3.3C166,54.1,165.8,53.1,165.7,53.1L165.7,53.1z"/>
			<path class="st5" d="M171.8,51.7h3.2c1.1,0,1.5,0.1,1.9,0.2c1.1,0.4,1.7,1.4,1.7,2.8c0,1.3-0.7,2.4-1.9,2.8v0
				c0,0,0.1,0.1,0.3,0.5l2.2,4h-1.7l-2.2-4.1h-2.2v4.1h-1.5V51.7z M175.3,56.7c1.1,0,1.8-0.7,1.8-1.9c0-0.8-0.3-1.3-0.8-1.6
				c-0.3-0.1-0.6-0.2-1.4-0.2h-1.7v3.7H175.3z"/>
			<path class="st5" d="M181.2,51.7h1.5v4.4h1.5l2.6-4.4h1.6l-3,4.9v0l3.2,5.4H187l-2.8-4.8h-1.5v4.8h-1.5V51.7z"/>
			<path class="st5" d="M190.4,51.7h6V53h-4.6v3.3h3.7v1.3h-3.7v3.3h4.8v1.3h-6.3V51.7z"/>
			<path class="st5" d="M201,53h-3.6v-1.3h8.6V53h-3.6v9.1H201V53z"/>
			<path class="st5" d="M207.5,51.7h3.8c1.9,0,3.3,1.3,3.3,3.3c0,2-1.4,3.3-3.3,3.3H209v3.8h-1.5V51.7z M211.1,57c1.3,0,2-0.8,2-2
				c0-1.3-0.8-2-2-2H209v4H211.1z"/>
			<path class="st5" d="M216.4,51.7h1.5v9.1h4.7v1.3h-6.1V51.7z"/>
			<path class="st5" d="M229.5,59.1h-3.9l-1,3h-1.5l3.7-10.4h1.5l3.7,10.4h-1.5L229.5,59.1z M227.6,53.1c0,0-0.2,0.9-0.4,1.5
				l-1.2,3.3h3.2l-1.1-3.3C227.8,54.1,227.6,53.1,227.6,53.1L227.6,53.1z"/>
			<path class="st5" d="M238.1,51.5c2.5,0,3.8,1.4,3.8,1.4l-0.7,1.1c0,0-1.2-1.1-3-1.1c-2.3,0-3.8,1.8-3.8,4c0,2.2,1.5,4.1,3.9,4.1
				c2,0,3.2-1.4,3.2-1.4l0.8,1c0,0-1.4,1.7-4,1.7c-3.1,0-5.3-2.4-5.3-5.4C232.8,53.8,235.1,51.5,238.1,51.5z"/>
			<path class="st5" d="M244.2,51.7h6V53h-4.6v3.3h3.7v1.3h-3.7v3.3h4.8v1.3h-6.3V51.7z"/>
		</g>
	</g>
	<text transform="matrix(1 0 0 1 288.1228 21.1048)" class="st6 st7 st8">TM</text>
</g>
</svg>
