<svg width="599" height="109" viewBox="0 0 599 109" fill="none" xmlns="http://www.w3.org/2000/svg">
<g clip-path="url(#clip0)">
<path d="M103.1 54.3C103.1 67.0355 98.937 78.7438 91.9652 88.0019C45.4906 81.1096 20.1848 40.5001 10.6519 21.2494C20.0839 8.3268 34.9167 0 51.6 0C80.1 0 103.1 24.3 103.1 54.3Z" fill="#001C54"/>
<path d="M51.5 108.6C57.9212 108.6 64.0682 107.366 69.7388 105.112C24.7704 84.9326 11.047 48.345 7.35922 26.3311C2.68716 34.499 0 44.068 0 54.3C0 84.3 23.1 108.6 51.5 108.6Z" fill="#001C54"/>
<path d="M184.6 71H201.1L214.6 30.3H202.5L193.4 61L183.9 30.3H169.2L158.5 60.2L149.6 30.3H136.2L149.4 71H165.5L175.6 41.9L184.6 71Z" fill="#001C54"/>
<path fill-rule="evenodd" clip-rule="evenodd" d="M225.313 59.4C225.608 63.2864 228.786 65.8 233.8 65.8C237.8 65.8 240.2 64.3 240.5 62H252.6C252 68.3 245.5 71.7 233.4 71.7C220.1 71.7 213 66.4 213 57.3C213 47.6 220.5 41.9 234.1 41.9C246.8 41.9 253.2 47.4 253.2 58.4V59.4H225.313ZM225.3 53.4C225.7 49.8 228.5 47.7 233.3 47.7C238 47.7 241 49.9 241 53.4H225.3Z" fill="#001C54"/>
<path d="M278 71.6C264.5 71.6 257.4 66.4 257.4 57.2C257.4 47.5 264.9 41.8 278.5 41.8C290.2 41.8 296.7 45.6 297.6 52.6H285.3C284.8 49.5 282.4 48 278.2 48C273.2 48 270.2 51.2 270.2 57.1C270.2 62.3 273 65.2 278.2 65.2C282.8 65.2 285.3 63.4 285.4 59.9H298.1C297.6 67.9 291.1 71.6 278 71.6Z" fill="#001C54"/>
<path fill-rule="evenodd" clip-rule="evenodd" d="M302.4 56.7C302.4 66.2 309.7 71.6 323.7 71.6C338.6 71.6 346.1 66.6 346.1 56.8C346.1 47.2 338.5 41.8 324.2 41.8C309.9 41.8 302.4 47.2 302.4 56.7ZM315.4 56.4C315.4 50.7 318.6 47.5 324.3 47.5C329.7 47.5 333.2 50.9 333.3 56.5C333.3 62 329.9 65.3 324.4 65.3C318.5 65.3 315.4 62.2 315.4 56.4Z" fill="#001C54"/>
<path d="M352.1 61.6V51.9H375.6V61.6H352.1Z" fill="#001C54"/>
<path d="M403.9 71V38.8H421.5V30.3H373.3V38.8H390.8V71H403.9Z" fill="#001C54"/>
<path d="M443.6 51.3C437.2 51.3 433.8 54.6 433.8 61V71H421.5V49.2C421.5 46.9 421.4 44.7 421.1 42.5H433.2C433.4 43.9 433.5 45.3 433.5 46.8V48.1C436.1 44 440.3 42.2 446.3 42.2H447.6V51.6C445.9 51.4 444.6 51.3 443.6 51.3Z" fill="#001C54"/>
<path fill-rule="evenodd" clip-rule="evenodd" d="M478.1 67.3C478.1 68.8 478.4 70 478.9 71H490.5C490 69.8 489.9 68.7 489.9 67.3V52.8C489.9 45.2 484.2 41.9 472.2 41.9C459.7 41.9 453.3 44.7 452.5 51H465C465.4 48.5 467.6 47.6 471.9 47.6C475.8 47.6 477.9 49.2 477.9 52.3C477.9 52.3899 477.88 52.5 477.858 52.6212C477.83 52.7697 477.8 52.9348 477.8 53.1H471.8C464 53.1 458.5 53.3 455.3 55.1C452 56.9 450.3 59.7 450.3 63.1C450.3 68.5 454.8 71.7 463.1 71.7C470.4 71.7 475.5 69.9 478.1 66.8V67.3ZM476.8 58.3H477.8V58.9C477.8 63.2 474.8 65.5 469.3 65.5C465.2 65.5 463.1 64.4 463.1 62.3C463.1 59.1 467.4 58.3 476.8 58.3Z" fill="#001C54"/>
<path d="M523.2 71H507.9L492.7 42.6H506.4L515.8 63.1L525.3 42.6H538.5L523.2 71Z" fill="#001C54"/>
<path fill-rule="evenodd" clip-rule="evenodd" d="M552.113 59.4C552.408 63.2864 555.586 65.8 560.6 65.8C564.6 65.8 567 64.3 567.3 62H579.4C578.8 68.3 572.3 71.7 560.2 71.7C546.9 71.7 539.8 66.4 539.8 57.3C539.8 47.6 547.3 41.9 560.9 41.9C573.6 41.9 580 47.4 580 58.4V59.4H552.113ZM552.1 53.4C552.5 49.8 555.3 47.7 560.1 47.7C564.8 47.7 567.7 49.9 567.8 53.4H552.1Z" fill="#001C54"/>
<path d="M586 71V30.3H598.3V71H586Z" fill="#001C54"/>
</g>
<defs>
<clipPath id="clip0">
<rect width="598.4" height="108.9" fill="white"/>
</clipPath>
</defs>
</svg>
